<?xml version="1.0" encoding="UTF-8"?>
<svg width="130px" height="120px" viewBox="0 0 130 120" version="1.1" xmlns="http://www.w3.org/2000/svg" xmlns:xlink="http://www.w3.org/1999/xlink">
    <!-- Generator: Sketch 49.3 (51167) - http://www.bohemiancoding.com/sketch -->
    <title>mastercard</title>
    <desc>Created with Sketch.</desc>
    <defs></defs>
    <g id="mastercard" stroke="none" stroke-width="1" fill="none" fill-rule="evenodd">
        <g id="master" transform="translate(13.000000, 51.000000)" fill-rule="nonzero">
            <path d="M45.5,12.8 L45.5,9.2 C45.5,7.8 44.6,6.8 43.1,6.8 C42.2,6.7 41.4,7.2 40.9,7.9 C40.5,7.2 39.7,6.8 38.9,6.8 C38.2,6.8 37.5,7.1 37.1,7.7 L37.1,7 L36,7 L36,12.9 L37.3,12.9 L37.3,9.7 C37.3,8.7 37.9,8.1 38.8,8.1 C39.7,8.1 40.1,8.7 40.1,9.7 L40.1,12.9 L41.4,12.9 L41.4,9.7 C41.4,8.7 42,8.1 42.9,8.1 C43.8,8.1 44.2,8.7 44.2,9.7 L44.2,12.9 L45.5,12.8 Z M65.1,7 L62.9,7 L62.9,5.2 L61.6,5.2 L61.6,7 L60.4,7 L60.4,8.2 L61.6,8.2 L61.6,10.9 C61.6,12.3 62.1,13.1 63.7,13.1 C64.3,13.1 64.9,12.9 65.4,12.6 L65,11.4 C64.6,11.6 64.2,11.7 63.8,11.7 C63.1,11.7 62.9,11.3 62.9,10.7 L62.9,8 L65.1,8 L65.1,7 Z M76.3,6.8 C75.6,6.8 75,7.1 74.7,7.7 L74.7,7 L73.4,7 L73.4,12.8 L74.7,12.8 L74.7,9.6 C74.7,8.6 75.1,8.1 76,8.1 C76.3,8.1 76.6,8.1 76.8,8.2 L77.2,7 C76.9,6.9 76.6,6.8 76.3,6.8 Z M59.4,7.5 C58.6,7.1 57.8,6.8 56.9,6.9 C55.4,6.9 54.3,7.6 54.3,8.8 C54.3,9.8 55,10.4 56.4,10.6 L57,10.7 C57.7,10.8 58.1,11 58.1,11.3 C58.1,11.8 57.6,12 56.7,12 C56,12 55.2,11.8 54.7,11.4 L54.1,12.4 C54.9,12.9 55.8,13.2 56.8,13.2 C58.6,13.2 59.6,12.4 59.6,11.3 C59.6,10.3 58.8,9.7 57.5,9.5 L56.9,9.4 C56.3,9.3 55.9,9.2 55.9,8.8 C55.9,8.4 56.3,8.1 57.1,8.1 C57.8,8.1 58.4,8.3 59,8.6 L59.4,7.5 Z M94.5,6.8 C93.8,6.8 93.2,7.1 92.9,7.7 L92.9,7 L91.6,7 L91.6,12.8 L92.9,12.8 L92.9,9.6 C92.9,8.6 93.3,8.1 94.2,8.1 C94.5,8.1 94.8,8.1 95,8.2 L95.4,7 C95.1,6.9 94.8,6.8 94.5,6.8 Z M77.6,9.9 C77.6,11.7 78.9,12.9 80.8,12.9 C81.6,12.9 82.4,12.7 83,12.2 L82.4,11.2 C81.9,11.5 81.4,11.7 80.8,11.7 C79.7,11.7 79,10.9 79,9.8 C79,8.7 79.8,7.9 80.8,7.9 C81.4,7.9 81.9,8.1 82.4,8.4 L83,7.4 C82.4,6.9 81.6,6.7 80.8,6.7 C78.9,6.8 77.6,8.2 77.6,9.9 Z M89.9,9.9 L89.9,7 L88.6,7 L88.6,7.7 C88.1,7.1 87.4,6.8 86.7,6.8 C85,6.8 83.7,8.1 83.7,9.8 C83.7,11.6 85,12.8 86.7,12.8 C87.5,12.8 88.2,12.5 88.6,11.9 L88.6,12.6 L89.9,12.6 L89.9,9.9 Z M85,9.9 C85,8.9 85.7,8 86.9,8 C88,8 88.7,8.8 88.7,9.9 C88.7,11 88,11.8 86.9,11.8 C85.7,11.8 85,10.9 85,9.9 Z M69.2,6.8 C67.4,6.8 66.3,8.1 66.3,9.8 C66.3,11.7 67.6,12.8 69.3,12.8 C70.2,12.8 71.1,12.5 71.8,12 L71.1,11 C70.6,11.4 70,11.6 69.3,11.6 C68.4,11.6 67.7,11.2 67.5,10.1 L72,10.1 C72,9.9 72,9.8 72,9.6 C72.1,8.1 70.9,6.8 69.2,6.8 Z M69.1,8 C70,8 70.5,8.5 70.6,9.4 L67.6,9.4 C67.8,8.6 68.3,8 69.1,8 Z M102,9.9 L102,4.6 L100.7,4.6 L100.7,7.6 C100.2,7 99.5,6.7 98.8,6.7 C97.1,6.7 95.8,8 95.8,9.7 C95.8,11.5 97.1,12.7 98.8,12.7 C99.6,12.7 100.3,12.4 100.7,11.8 L100.7,12.5 L102,12.5 L102,9.9 Z M103.5,12.3 C103.6,12.3 103.6,12.3 103.7,12.3 C103.7,12.3 103.8,12.3 103.8,12.4 L103.9,12.5 C103.9,12.6 103.9,12.7 103.9,12.8 C103.9,12.8 103.9,12.9 103.8,12.9 L103.7,13 C103.7,13 103.6,13 103.5,13 C103.3,13 103.2,12.9 103.1,12.8 C103.1,12.7 103.1,12.6 103.1,12.5 C103.1,12.4 103.2,12.3 103.3,12.3 C103.4,12.3 103.5,12.3 103.5,12.3 Z M103.5,13 C103.6,13 103.7,13 103.7,12.9 C103.8,12.8 103.8,12.6 103.7,12.5 C103.7,12.5 103.6,12.5 103.6,12.4 L103.5,12.4 L103.4,12.4 C103.2,12.5 103.2,12.6 103.2,12.8 C103.2,12.8 103.2,12.9 103.3,12.9 C103.4,12.9 103.4,12.9 103.5,13 Z M103.5,12.5 L103.6,12.7 L103.5,12.7 L103.6,12.8 L103.5,12.8 L103.4,12.7 L103.4,12.8 L103.3,12.8 L103.3,12.5 L103.5,12.5 Z M103.4,12.6 C103.5,12.7 103.5,12.7 103.4,12.6 C103.6,12.6 103.5,12.6 103.4,12.6 Z M97.2,9.9 C97.2,8.9 97.9,8 99.1,8 C100.2,8 100.9,8.8 100.9,9.9 C100.9,11 100.2,11.8 99.1,11.8 C97.8,11.8 97.2,10.9 97.2,9.9 Z M52.9,9.9 L52.9,7 L51.6,7 L51.6,7.7 C51.1,7.1 50.4,6.8 49.7,6.8 C48,6.8 46.7,8.1 46.7,9.8 C46.7,11.6 48,12.8 49.7,12.8 C50.5,12.8 51.2,12.5 51.6,11.9 L51.6,12.6 L52.9,12.6 L52.9,9.9 Z M48.1,9.9 C48.1,8.9 48.8,8 50,8 C51.1,8 51.8,8.8 51.8,9.9 C51.8,11 51,11.8 50,11.8 C48.8,11.8 48.1,10.9 48.1,9.9 Z" id="Shape" fill="#FFFFFF"></path>
            <g id="_Group_">
                <rect id="Rectangle-path" fill="#FF5F00" x="11.4" y="3" width="8" height="13.9"></rect>
                <path d="M11.9,9.8 C11.9,7.1 13.2,4.6 15.3,2.9 C11.4,-0.1 5.7,0.5 2.6,4.4 C-0.5,8.3 0.2,13.7 4.1,16.8 C7.3,19.3 12,19.3 15.3,16.8 C13.2,15.1 11.9,12.6 11.9,9.8 Z" id="_Path_" fill="#EB001B"></path>
                <path d="M30,9.8 C30,14.6 26,18.5 21,18.5 C18.9,18.5 17,17.8 15.4,16.6 C19.3,13.6 20,8 16.9,4.2 C16.4,3.6 15.9,3.1 15.4,2.7 C19.3,-0.3 25,0.3 28.1,4.2 C29.3,6 30,7.9 30,9.8 Z" id="Shape" fill="#F79E1B"></path>
                <path d="M29.1,15.3 L29.1,15 L29.2,15 L29.2,14.9 L28.9,14.9 L28.9,15 L29,15 L29.1,15.3 Z M29.7,15.3 L29.7,15 L29.6,15 L29.5,15.2 L29.4,15 L29.3,15 L29.3,15.3 L29.4,15.3 L29.4,15 L29.5,15.2 L29.7,15.3 L29.7,15 L29.7,15.3 Z" id="Shape" fill="#F79E1B"></path>
            </g>
        </g>
    </g>
</svg>