<svg width="133" height="66" viewBox="0 0 133 66" fill="none" xmlns="http://www.w3.org/2000/svg">
<path d="M66.4906 0C29.769 0 0 14.7477 0 32.9373C0 51.1268 29.769 65.8745 66.4906 65.8745C103.212 65.8745 132.984 51.1268 132.984 32.9373C132.984 14.7477 103.21 0 66.4906 0ZM66.4906 60.6758C32.6683 60.6758 5.24963 48.2567 5.24963 32.9373C5.24963 17.6178 32.6683 5.20099 66.4906 5.20099C100.313 5.20099 127.734 17.6178 127.734 32.9373C127.734 48.2567 100.315 60.6758 66.4906 60.6758ZM58.1072 27.1599V21.9589H76.8726V27.1599H70.117V43.9225H64.8604V27.1599H58.1072ZM99.5084 21.9589V43.9225H94.2588L84.7377 30.8504V43.9225H79.4904V21.9589H84.7377L94.2588 35.0311V21.9589H99.5084ZM33.3204 43.9225V21.9589H38.57L44.4014 30.8457L50.2327 21.9589H55.4823V43.9225H50.2327V31.4964L46.2451 37.5596H42.5506L38.563 31.4964V43.9225H33.3204Z" fill="#F8C000"/>
</svg>
