<svg viewBox="0 0 161 30" width="161" height="30" xmlns="http://www.w3.org/2000/svg" xmlnsxlink="http://www.w3.org/1999/xlink"><title>Showmax logo</title><defs><linearGradient x1="50%" y1=".612%" x2="50%" y2="100%" id="svg2fdb2405940a5ee7be866046d714b74fa"><stop stop-color="#E43F8C" offset="0%"></stop><stop stop-color="#C44A88" offset="100%"></stop></linearGradient><linearGradient x1="50%" y1="0%" x2="50%" y2="100%" id="svg2fdb2405940a5ee7be866046d714b74fc"><stop stop-color="#658D9D" offset="0%"></stop><stop stop-color="#377B8B" offset="100%"></stop></linearGradient><path id="svg2fdb2405940a5ee7be866046d714b74fb" d="M92.317 8.323h7.039l-6.425 20.82h-7.039l6.425-20.82"></path></defs><g fill="none" fill-rule="evenodd"><path d="M18.237 1.654L25.548.91v10.191c1.347-1.743 3.272-3.332 6.235-3.332 4.425 0 7.081 2.945 7.081 7.71v13.665h-7.273v-11.3c0-2.326-1.193-3.566-2.964-3.566-1.77 0-3.079 1.24-3.079 3.565v11.3h-7.311V1.655" fill="#FFF"></path><path d="M54.305 18.812v-.078c0-2.596-1.885-4.765-4.464-4.765-2.655 0-4.349 2.13-4.349 4.688v.077c0 2.558 1.848 4.728 4.426 4.728 2.656 0 4.387-2.131 4.387-4.65zm-15.894 0v-.078c0-5.967 4.85-10.965 11.507-10.965 6.658 0 11.468 4.921 11.468 10.888v.077c0 5.968-4.849 10.966-11.545 10.966-6.62 0-11.43-4.921-11.43-10.888z" fill="#FFF"></path><path fill="#FFF" d="M80.801 19.058L77.344 8.323H71.34l-3.233 10.393-2.732-10.393h-7.12l6.35 20.82h6.235l3.464-10.823 3.385 10.824L80.8 19.058M112.447 8.323h-6.235l-3.463 10.86-3.393-10.86-3.05 9.882 3.402 10.939h6.004l3.233-10.392 2.732 10.392h7.12l-6.35-20.82M0 26.517l2.733-4.418c2.386 1.589 4.965 2.402 7.12 2.402 1.27 0 1.886-.387 1.886-1.123V23.3c0-.853-1.194-1.202-3.387-1.822C4.234 20.394.962 19 .962 14.814v-.078C.962 10.28 4.503 7.8 9.314 7.8c3.04 0 6.196.891 8.582 2.441l-2.5 4.65c-2.156-1.24-4.504-1.976-6.16-1.976-1.115 0-1.692.426-1.692 1.046v.078c0 .814 1.231 1.201 3.387 1.86 4.118 1.162 7.389 2.596 7.389 6.665v.078c0 4.611-3.425 7.014-8.506 7.014-3.502 0-6.966-1.047-9.814-3.14"></path><path d="M137.818 24.716V12.937l5.489 5.893-5.489 5.886zm-5.908-5.972c0 2.79-2.045 4.767-4.431 4.767-2.348 0-4.431-1.977-4.431-4.767v-.077c0-2.79 2.083-4.766 4.43-4.766 2.387 0 4.432 2.014 4.432 4.766v.077zm28.887-10.42h-9.355l-3.864 4.807-3.865-4.808h-12.172V10.8c-1.477-1.589-3.175-3.022-6.33-3.022-4.927 0-9.18 4.146-9.18 10.966v.078c0 6.703 4.253 10.85 9.218 10.85 3.117 0 4.815-1.511 6.292-3.255v2.727h12.269l3.768-4.686 3.766 4.686h9.355l-8.444-10.349 8.542-10.472z" fill="#FFF"></path><path fill="url(#svg2fdb2405940a5ee7be866046d714b74fa)" d="M84.113 8.323h7.04l-6.425 20.82h-7.04l6.425-20.82"></path><g><use fill="#638690" xlink:href="#svg2fdb2405940a5ee7be866046d714b74fb"></use><use fill="url(#svg2fdb2405940a5ee7be866046d714b74fc)" xlink:href="#svg2fdb2405940a5ee7be866046d714b74fb"></use></g></g></svg>